HIERARCHY
ROOT Hips
{
	OFFSET 0.000000 83.214638 0.000000
	CHANNELS 6 Xposition Yposition Zposition Xrotation Yrotation Zrotation
	JOINT Pelvis
	{
		OFFSET 0.000000 0.000000 0.000000
		CHANNELS 3 Xrotation Yrotation Zrotation
		JOINT LeftUpLeg
		{
			OFFSET 8.479700 -4.795502 -0.379100
			CHANNELS 3 Xrotation Yrotation Zrotation
			JOINT LeftLeg
			{
				OFFSET 0.024144 -32.555107 0.112900
				CHANNELS 3 Xrotation Yrotation Zrotation
				JOINT LeftFoot
				{
					OFFSET -0.024144 -32.638630 -3.012600
					CHANNELS 3 Xrotation Yrotation Zrotation
					JOINT LeftToeBase
					{
						OFFSET 0.970200 -13.225400 11.864200
						CHANNELS 3 Xrotation Yrotation Zrotation
						End Site
						{
							OFFSET 0.000000 12.319262 0.000000
						}
					}
					JOINT LFootTongue
					{
						OFFSET 1.142400 -1.059800 6.665200
						CHANNELS 3 Xrotation Yrotation Zrotation
						End Site
						{
							OFFSET 0.000000 12.319262 0.000000
						}
					}
				}
				JOINT LeftPantLeg
				{
					OFFSET 0.918482 -16.533964 -2.284700
					CHANNELS 3 Xrotation Yrotation Zrotation
					End Site
					{
						OFFSET 0.350399 24.744368 0.000000
					}
				}
			}
		}
		JOINT RightUpLeg
		{
			OFFSET -8.479700 -4.795502 -0.379100
			CHANNELS 3 Xrotation Yrotation Zrotation
			JOINT RightLeg
			{
				OFFSET -0.023144 -32.555092 0.112900
				CHANNELS 3 Xrotation Yrotation Zrotation
				JOINT RightFoot
				{
					OFFSET 0.023144 -32.638641 -3.012700
					CHANNELS 3 Xrotation Yrotation Zrotation
					JOINT RightToeBase
					{
						OFFSET -0.970200 -13.225400 11.864200
						CHANNELS 3 Xrotation Yrotation Zrotation
						End Site
						{
							OFFSET 0.000000 12.319244 0.000000
						}
					}
					JOINT RFootTongue
					{
						OFFSET -1.142200 -1.059800 6.665200
						CHANNELS 3 Xrotation Yrotation Zrotation
						End Site
						{
							OFFSET 0.000000 12.319243 0.000000
						}
					}
				}
				JOINT RightPantLeg
				{
					OFFSET -0.919482 -16.533978 -2.284800
					CHANNELS 3 Xrotation Yrotation Zrotation
					End Site
					{
						OFFSET -0.350400 24.744419 0.000000
					}
				}
			}
		}
	}
	JOINT Spine
	{
		OFFSET 0.000000 7.722000 1.166200
		CHANNELS 3 Xrotation Yrotation Zrotation
		JOINT Spine1
		{
			OFFSET 0.000000 12.024101 0.248800
			CHANNELS 3 Xrotation Yrotation Zrotation
			JOINT Spine2
			{
				OFFSET 0.000000 11.502998 -0.491200
				CHANNELS 3 Xrotation Yrotation Zrotation
				JOINT Neck
				{
					OFFSET 0.000000 18.430702 -3.123100
					CHANNELS 3 Xrotation Yrotation Zrotation
					JOINT Head
					{
						OFFSET 0.000000 9.051102 1.034000
						CHANNELS 3 Xrotation Yrotation Zrotation
						JOINT HairB
						{
							OFFSET 0.208400 24.786102 24.822300
							CHANNELS 3 Xrotation Yrotation Zrotation
							End Site
							{
								OFFSET 0.000000 32.263779 0.000000
							}
						}
						JOINT HairA
						{
							OFFSET -7.081100 24.428299 23.196600
							CHANNELS 3 Xrotation Yrotation Zrotation
							End Site
							{
								OFFSET 0.000000 32.263779 0.000000
							}
						}
						JOINT Hat
						{
							OFFSET 16.728800 15.048294 -15.439601
							CHANNELS 3 Xrotation Yrotation Zrotation
							End Site
							{
								OFFSET 0.000000 32.263779 0.000000
							}
						}
					}
				}
				JOINT LeftShoulder
				{
					OFFSET 6.197800 13.665199 -4.064700
					CHANNELS 3 Xrotation Yrotation Zrotation
					JOINT LeftArm
					{
						OFFSET 7.778100 -0.187103 -1.709300
						CHANNELS 3 Xrotation Yrotation Zrotation
						JOINT LeftForeArm
						{
							OFFSET 22.049376 0.000000 0.000000
							CHANNELS 3 Xrotation Yrotation Zrotation
							JOINT LeftHand
							{
								OFFSET 23.009392 0.000000 0.000000
								CHANNELS 3 Xrotation Yrotation Zrotation
								JOINT LeftHandThumb1
								{
									OFFSET 3.507191 -2.063065 3.133727
									CHANNELS 3 Xrotation Yrotation Zrotation
									JOINT LeftHandThumb2
									{
										OFFSET 3.101337 -1.790558 1.790558
										CHANNELS 3 Xrotation Yrotation Zrotation
										JOINT LeftHandThumb3
										{
											OFFSET 3.058640 -1.765907 1.765906
											CHANNELS 3 Xrotation Yrotation Zrotation
											End Site
											{
												OFFSET -0.415260 3.926476 -0.049563
											}
										}
									}
								}
								JOINT LeftHandIndex1
								{
									OFFSET 11.334419 -0.901459 3.706815
									CHANNELS 3 Xrotation Yrotation Zrotation
									JOINT LeftHandIndex2
									{
										OFFSET 3.283112 0.000000 0.000000
										CHANNELS 3 Xrotation Yrotation Zrotation
										JOINT LeftHandIndex3
										{
											OFFSET 3.323853 0.000000 0.000000
											CHANNELS 3 Xrotation Yrotation Zrotation
											End Site
											{
												OFFSET -1.135597 3.097809 0.402452
											}
										}
									}
								}
								JOINT LeftHandMiddle1
								{
									OFFSET 11.335861 0.000000 0.000000
									CHANNELS 3 Xrotation Yrotation Zrotation
									JOINT LeftHandMiddle2
									{
										OFFSET 3.410492 0.000000 0.000000
										CHANNELS 3 Xrotation Yrotation Zrotation
										JOINT LeftHandMiddle3
										{
											OFFSET 3.312172 0.000000 0.000000
											CHANNELS 3 Xrotation Yrotation Zrotation
											End Site
											{
												OFFSET -1.150200 3.080154 0.400270
											}
										}
									}
								}
								JOINT LeftHandRing1
								{
									OFFSET 11.514786 -0.013176 -3.003090
									CHANNELS 3 Xrotation Yrotation Zrotation
									JOINT LeftHandRing2
									{
										OFFSET 3.053307 0.000000 0.000000
										CHANNELS 3 Xrotation Yrotation Zrotation
										JOINT LeftHandRing3
										{
											OFFSET 3.295807 0.000000 0.000000
											CHANNELS 3 Xrotation Yrotation Zrotation
											End Site
											{
												OFFSET -1.281006 3.013344 0.375733
											}
										}
									}
								}
								JOINT LeftHandPinky1
								{
									OFFSET 10.518692 -0.960396 -5.730441
									CHANNELS 3 Xrotation Yrotation Zrotation
									JOINT LeftHandPinky2
									{
										OFFSET 2.861649 0.000000 0.000000
										CHANNELS 3 Xrotation Yrotation Zrotation
										JOINT LeftHandPinky3
										{
											OFFSET 2.863380 0.000000 0.000000
											CHANNELS 3 Xrotation Yrotation Zrotation
											End Site
											{
												OFFSET -0.843597 2.711159 0.369971
											}
										}
									}
								}
							}
							JOINT LSleeve
							{
								OFFSET 6.676277 -0.344902 -1.011730
								CHANNELS 3 Xrotation Yrotation Zrotation
								End Site
								{
									OFFSET 0.000000 14.885353 0.000000
								}
							}
						}
					}
				}
				JOINT RightShoulder
				{
					OFFSET -6.197800 13.665199 -4.064700
					CHANNELS 3 Xrotation Yrotation Zrotation
					JOINT RightArm
					{
						OFFSET -7.778100 -0.187103 -1.709300
						CHANNELS 3 Xrotation Yrotation Zrotation
						JOINT RightForeArm
						{
							OFFSET -22.049376 0.000000 0.000000
							CHANNELS 3 Xrotation Yrotation Zrotation
							JOINT RightHand
							{
								OFFSET -23.009392 0.000000 0.000000
								CHANNELS 3 Xrotation Yrotation Zrotation
								JOINT RightHandThumb1
								{
									OFFSET -3.507191 -2.063065 3.133727
									CHANNELS 3 Xrotation Yrotation Zrotation
									JOINT RightHandThumb2
									{
										OFFSET -3.101337 -1.790558 1.790558
										CHANNELS 3 Xrotation Yrotation Zrotation
										JOINT RightHandThumb3
										{
											OFFSET -3.058640 -1.765907 1.765906
											CHANNELS 3 Xrotation Yrotation Zrotation
											End Site
											{
												OFFSET 0.415260 3.926476 -0.049563
											}
										}
									}
								}
								JOINT RightHandIndex1
								{
									OFFSET -11.334419 -0.901459 3.706815
									CHANNELS 3 Xrotation Yrotation Zrotation
									JOINT RightHandIndex2
									{
										OFFSET -3.283112 0.000000 0.000000
										CHANNELS 3 Xrotation Yrotation Zrotation
										JOINT RightHandIndex3
										{
											OFFSET -3.323853 0.000000 0.000000
											CHANNELS 3 Xrotation Yrotation Zrotation
											End Site
											{
												OFFSET 1.135597 3.097809 0.402452
											}
										}
									}
								}
								JOINT RightHandMiddle1
								{
									OFFSET -11.335861 0.000000 0.000000
									CHANNELS 3 Xrotation Yrotation Zrotation
									JOINT RightHandMiddle2
									{
										OFFSET -3.410492 0.000000 0.000000
										CHANNELS 3 Xrotation Yrotation Zrotation
										JOINT RightHandMiddle3
										{
											OFFSET -3.312172 0.000000 0.000000
											CHANNELS 3 Xrotation Yrotation Zrotation
											End Site
											{
												OFFSET 1.150200 3.080154 0.400270
											}
										}
									}
								}
								JOINT RightHandRing1
								{
									OFFSET -11.514786 -0.013176 -3.003090
									CHANNELS 3 Xrotation Yrotation Zrotation
									JOINT RightHandRing2
									{
										OFFSET -3.053307 0.000000 0.000000
										CHANNELS 3 Xrotation Yrotation Zrotation
										JOINT RightHandRing3
										{
											OFFSET -3.295807 0.000000 0.000000
											CHANNELS 3 Xrotation Yrotation Zrotation
											End Site
											{
												OFFSET 1.281006 3.013344 0.375733
											}
										}
									}
								}
								JOINT RightHandPinky1
								{
									OFFSET -10.518692 -0.960396 -5.730441
									CHANNELS 3 Xrotation Yrotation Zrotation
									JOINT RightHandPinky2
									{
										OFFSET -2.861649 0.000000 0.000000
										CHANNELS 3 Xrotation Yrotation Zrotation
										JOINT RightHandPinky3
										{
											OFFSET -2.863380 0.000000 0.000000
											CHANNELS 3 Xrotation Yrotation Zrotation
											End Site
											{
												OFFSET 0.843597 2.711159 0.369971
											}
										}
									}
								}
							}
							JOINT RSleeve
							{
								OFFSET -6.676277 -0.344902 -1.011730
								CHANNELS 3 Xrotation Yrotation Zrotation
								End Site
								{
									OFFSET 0.000000 14.885353 0.000000
								}
							}
						}
					}
				}
				JOINT Backpack
				{
					OFFSET 0.000000 -2.471497 36.677502
					CHANNELS 3 Xrotation Yrotation Zrotation
					End Site
					{
						OFFSET 0.000000 20.427315 0.000000
					}
				}
				JOINT Hood
				{
					OFFSET 0.000000 18.754097 -10.431000
					CHANNELS 3 Xrotation Yrotation Zrotation
					JOINT Hood1
					{
						OFFSET 0.000000 -5.011002 -7.685901
						CHANNELS 3 Xrotation Yrotation Zrotation
						End Site
						{
							OFFSET 0.000000 9.175140 0.000000
						}
					}
				}
				JOINT LHoodieString
				{
					OFFSET 5.250500 16.397697 3.089900
					CHANNELS 3 Xrotation Yrotation Zrotation
					JOINT LHoodieString1
					{
						OFFSET 0.257700 -6.364304 3.694600
						CHANNELS 3 Xrotation Yrotation Zrotation
						JOINT LHoodieString2
						{
							OFFSET 0.000000 -9.643799 2.679100
							CHANNELS 3 Xrotation Yrotation Zrotation
							End Site
							{
								OFFSET 0.000000 10.009018 0.000000
							}
						}
					}
				}
				JOINT RHoodieString
				{
					OFFSET -5.250500 16.397697 3.089900
					CHANNELS 3 Xrotation Yrotation Zrotation
					JOINT RHoodieString1
					{
						OFFSET -0.257700 -6.364304 3.694600
						CHANNELS 3 Xrotation Yrotation Zrotation
						JOINT RHoodieString2
						{
							OFFSET 0.000000 -9.643799 2.679100
							CHANNELS 3 Xrotation Yrotation Zrotation
							End Site
							{
								OFFSET 0.000000 10.009018 0.000000
							}
						}
					}
				}
			}
			JOINT LBackpack_Strap
			{
				OFFSET 15.223200 -7.719803 -6.610900
				CHANNELS 3 Xrotation Yrotation Zrotation
				End Site
				{
					OFFSET 0.000000 16.040596 0.000000
				}
			}
			JOINT RBackpack_Strap
			{
				OFFSET -15.223000 -7.719803 -6.610900
				CHANNELS 3 Xrotation Yrotation Zrotation
				End Site
				{
					OFFSET 0.000000 16.040596 0.000000
				}
			}
		}
	}
	JOINT BoyFacialAnim_Joint
	{
		OFFSET 1.000000 -82.208099 -1.550900
		CHANNELS 3 Xrotation Yrotation Zrotation
		End Site
		{
			OFFSET 0.000000 30.012791 0.000000
		}
	}
}
MOTION
Frames: 4
Frame Time: 0.033333
0.670822 75.195862 0.907041 -6.570577 25.316392 1.890035 0.000000 0.000002 0.000000 -7.504355 3.769152 0.441646 54.158930 -3.489387 -2.792518 -24.438166 -3.565774 7.371268 -0.000002 -0.000002 0.000000 -0.000002 -0.000002 0.000000 -0.000002 -0.000001 0.000001 -35.879260 0.699562 -5.791304 57.142121 -6.995858 1.552628 -0.714253 7.201733 3.373854 0.000000 0.000001 0.000000 0.000000 0.000001 0.000000 -0.000000 -0.000001 -0.000001 -0.464276 -10.314878 -8.043833 0.828552 -1.391570 2.634489 0.905842 -1.384788 2.608684 7.261460 -1.209574 -1.031721 19.438607 -7.448603 -0.558121 0.000000 -0.000000 -0.000000 0.000000 -0.000000 -0.000000 0.000000 -0.000000 -0.000000 3.719917 -7.105021 26.198616 -58.399729 -37.958643 -35.510529 0.000014 -42.363842 0.000010 2.027581 10.834384 22.167965 -3.172585 9.877417 15.387038 4.477760 14.470043 1.238838 0.000001 0.000003 -0.000002 0.016098 -0.471658 3.911446 0.029244 0.635280 -5.271814 0.000000 -0.000001 0.000003 0.000188 -0.051321 0.425312 0.048480 0.817317 -6.788919 0.000000 -0.000001 0.000000 0.003718 0.226841 -1.880049 0.085077 1.081227 -8.997360 0.000001 0.000000 -0.000002 0.352916 4.629477 -4.386447 0.241765 -2.237765 -15.747980 -0.000000 -0.000000 -0.000002 0.000000 0.000000 0.000001 -0.771198 -3.722767 -11.830962 4.647649 10.832835 -10.517182 0.000011 39.248490 -0.000010 22.126536 6.258212 -62.545955 -2.705203 -5.006354 -15.278588 5.520336 -18.554556 -0.893426 0.000003 -0.000002 0.000000 0.101749 1.187539 -9.793528 0.012271 -0.413786 3.397373 -0.000001 -0.000002 0.000003 0.105461 1.208866 -9.971192 0.008102 -0.336098 2.759001 -0.000000 -0.000002 -0.000001 0.010570 0.384057 -3.153033 0.001265 -0.132925 1.090781 -0.000003 0.000004 0.000001 0.058636 -0.902904 7.430369 0.019983 -0.527824 4.335341 -0.000004 0.000003 0.000001 0.000000 -0.000001 -0.000001 0.000000 0.000001 0.000000 0.000000 0.000001 0.000000 0.000000 0.000001 0.000000 0.000000 0.000001 0.000000 0.000000 0.000001 0.000000 0.000000 0.000001 0.000000 0.000000 0.000001 0.000000 0.000000 0.000001 0.000000 0.000000 0.000001 0.000000 -0.000000 -0.000000 -0.000000 -0.000000 -0.000000 -0.000000 0.000000 0.000002 0.000000 
0.385687 75.320007 3.378502 -6.733249 27.778699 0.226643 0.000000 0.000001 -0.000000 -5.778410 3.607720 3.843865 53.735673 -3.366545 -0.832495 -25.151893 -5.591510 4.469214 -0.000001 0.000003 -0.000001 -0.000001 0.000003 -0.000001 0.000001 0.000000 0.000001 -33.274684 -1.304086 -3.448229 58.265892 -7.899039 3.141762 -5.266920 5.226926 -0.702363 0.000001 0.000002 -0.000000 0.000001 0.000002 -0.000000 -0.000000 -0.000000 -0.000000 -1.425045 -11.782874 -7.924148 1.270717 -1.577229 3.533871 1.370524 -1.571171 3.499030 7.048457 -1.316261 -1.076345 19.004204 -7.936355 -1.078297 0.000001 -0.000000 -0.000000 0.000001 -0.000000 -0.000000 0.000001 -0.000000 -0.000000 4.159849 -8.334279 26.301047 -56.105093 -37.656834 -33.438134 -0.000011 -44.620280 -0.000016 4.535287 11.355913 23.312984 -3.172583 9.877416 15.387042 4.477758 14.470043 1.238842 -0.000001 0.000002 -0.000001 0.017824 -0.496107 4.114461 0.025846 0.597251 -4.955329 0.000000 0.000000 0.000002 0.000425 -0.075826 0.628308 0.044065 0.779397 -6.472386 -0.000001 -0.000001 -0.000003 0.003958 0.233467 -1.934912 0.084831 1.079698 -8.984538 -0.000000 -0.000001 0.000001 0.357388 4.635757 -4.441531 0.241348 -2.239238 -15.735185 -0.000000 0.000000 0.000002 -0.000000 -0.000000 0.000002 -1.301926 -5.693437 -11.527849 4.811043 10.526976 -10.750998 -0.000000 36.109062 0.000011 21.263931 8.376098 -62.694764 -2.705201 -5.006352 -15.278592 5.520336 -18.554557 -0.893427 -0.000002 0.000000 0.000001 0.106508 1.214843 -10.020945 0.015532 -0.465377 3.821592 -0.000000 0.000005 0.000003 0.110384 1.236528 -10.201861 0.008333 -0.341089 2.799904 0.000002 0.000003 0.000000 0.013423 0.432703 -3.552916 0.001016 -0.118881 0.975507 -0.000002 -0.000001 0.000002 0.052307 -0.853017 7.017520 0.018318 -0.505537 4.151974 -0.000001 0.000001 0.000000 0.000002 0.000003 0.000002 -0.000000 0.000001 0.000000 -0.000000 0.000001 0.000000 -0.000000 0.000001 0.000000 -0.000000 0.000001 0.000000 -0.000000 0.000001 0.000000 -0.000000 0.000000 -0.000000 -0.000000 0.000001 0.000000 -0.000000 0.000001 0.000000 -0.000000 0.000000 -0.000000 -0.000001 -0.000001 -0.000000 -0.000001 -0.000001 -0.000000 0.000000 0.000001 -0.000000 
0.085913 75.419098 5.981266 -6.752654 30.013204 -2.006753 0.000000 -0.000002 -0.000000 -5.175250 2.939503 6.980037 54.505579 -0.715272 2.254634 -24.666528 -8.742018 0.505153 0.000002 0.000000 0.000000 0.000002 0.000000 0.000001 0.000003 0.000000 0.000001 -30.086020 -4.382730 -0.546498 57.918140 -7.136900 3.943634 -9.227254 3.166522 -4.313833 0.000001 0.000001 -0.000001 0.000001 0.000001 -0.000001 0.000000 -0.000001 0.000001 -2.286989 -12.914420 -7.536228 1.510634 -1.714527 4.213808 1.628907 -1.713702 4.171570 7.059642 -1.487985 -0.910687 18.798023 -8.445836 -1.296996 0.000000 0.000000 -0.000000 0.000000 0.000000 -0.000000 0.000000 0.000000 -0.000000 5.381492 -11.058612 27.631216 -52.877122 -36.768739 -30.100220 -0.000001 -48.233806 0.000012 7.860956 12.465905 25.090649 -3.172583 9.877414 15.387040 4.477760 14.470043 1.238840 0.000001 0.000001 -0.000000 0.017770 -0.495552 4.109904 0.024985 0.587262 -4.872228 0.000001 -0.000000 -0.000005 0.000407 -0.075276 0.623768 0.042948 0.769406 -6.389276 0.000000 0.000001 -0.000001 0.002261 0.176462 -1.462426 0.084462 1.077416 -8.965603 0.000001 -0.000002 -0.000002 0.319264 4.581521 -3.967178 0.240731 -2.241475 -15.716270 -0.000001 0.000000 -0.000000 0.000000 -0.000000 0.000002 -1.742093 -7.533887 -10.828111 5.113864 9.887189 -11.195996 -0.000001 32.859699 -0.000001 20.083594 10.382069 -62.770361 -2.705208 -5.006349 -15.278590 5.520337 -18.554557 -0.893426 -0.000000 -0.000001 -0.000001 0.108814 1.227812 -10.129111 0.016014 -0.472686 3.881714 0.000001 -0.000004 0.000005 0.112398 1.247656 -10.294734 0.008451 -0.343384 2.818814 0.000002 -0.000001 -0.000000 0.014776 0.453984 -3.727865 0.000910 -0.113228 0.929092 -0.000000 -0.000000 0.000000 0.049113 -0.826664 6.799735 0.008835 -0.351324 2.884035 -0.000004 0.000000 -0.000001 0.000001 -0.000003 -0.000000 0.000000 -0.000000 -0.000000 0.000000 -0.000000 -0.000000 0.000000 -0.000000 -0.000000 0.000000 -0.000000 -0.000000 0.000000 -0.000000 -0.000000 0.000000 -0.000000 -0.000000 0.000000 -0.000000 -0.000000 0.000000 -0.000000 -0.000000 0.000000 -0.000000 -0.000000 0.000000 0.000000 -0.000000 0.000000 0.000000 -0.000000 0.000000 -0.000002 -0.000000 
-0.140751 75.432228 8.461044 -6.382031 30.816779 -3.821184 -0.000000 -0.000004 -0.000000 -5.730756 1.434177 8.181877 56.193998 2.722097 5.220604 -21.528556 -10.621737 -3.057176 0.000002 0.000001 -0.000001 0.000002 0.000001 -0.000001 0.000001 -0.000003 0.000004 -27.538814 -7.461494 1.297971 57.311427 -4.476065 4.589565 -11.845881 1.621014 -7.452726 0.000000 0.000001 0.000000 0.000000 0.000001 0.000000 -0.000002 0.000000 -0.000000 -3.153083 -12.951658 -7.158978 1.472208 -1.708444 4.376566 1.592786 -1.715600 4.333149 7.278805 -1.671359 -0.575364 18.760238 -8.791434 -1.189920 -0.000001 -0.000000 0.000000 -0.000001 -0.000000 0.000000 -0.000001 -0.000000 0.000000 7.114616 -14.236130 29.972643 -48.892092 -35.457438 -25.788633 0.000019 -51.934283 0.000020 11.003075 14.100296 26.777564 -3.172584 9.877417 15.387038 4.477760 14.470043 1.238838 -0.000000 0.000001 -0.000001 0.019353 -0.516937 4.287519 0.025403 0.592315 -4.914278 -0.000000 0.000003 -0.000001 0.000681 -0.096717 0.801371 0.043518 0.774465 -6.431326 0.000000 0.000000 -0.000003 0.000053 0.025986 -0.215332 0.080088 1.049285 -8.729439 -0.000001 -0.000000 -0.000000 0.220852 4.436901 -2.715506 0.233064 -2.268894 -15.480506 -0.000001 0.000001 -0.000000 -0.000000 0.000000 0.000001 -1.933794 -8.654649 -9.880385 5.554468 9.070643 -11.601897 -0.000004 30.069734 0.000011 18.300515 11.518910 -62.461561 -2.705205 -5.006349 -15.278590 5.520341 -18.554554 -0.893428 -0.000003 0.000001 -0.000000 0.109509 1.231711 -10.161685 0.008673 -0.347644 2.853947 -0.000006 -0.000001 0.000003 0.112159 1.246333 -10.283630 0.008515 -0.344792 2.830412 -0.000001 -0.000002 0.000003 0.015058 0.458279 -3.763251 0.000929 -0.113900 0.934638 0.000003 0.000002 -0.000003 0.047719 -0.814949 6.702936 0.001210 -0.130131 1.067897 -0.000000 -0.000000 0.000000 -0.000000 0.000001 -0.000003 -0.000001 -0.000000 -0.000000 -0.000001 -0.000000 -0.000000 -0.000001 -0.000000 -0.000000 -0.000001 -0.000000 -0.000000 -0.000001 -0.000000 0.000000 0.000000 -0.000000 -0.000000 -0.000001 -0.000000 -0.000000 -0.000001 -0.000000 0.000000 0.000000 -0.000000 -0.000000 -0.000000 0.000001 -0.000000 -0.000000 0.000001 -0.000000 -0.000000 -0.000004 -0.000000 
